<mxfile host="app.diagrams.net" agent="Mozilla/5.0 (Windows NT 10.0; Win64; x64) AppleWebKit/537.36 (KHTML, like Gecko) Chrome/131.0.0.0 Safari/537.36" version="25.0.3">
  <diagram id="C5RBs43oDa-KdzZeNtuy" name="Page-1">
    <mxGraphModel dx="1985" dy="815" grid="1" gridSize="10" guides="1" tooltips="1" connect="1" arrows="1" fold="1" page="1" pageScale="1" pageWidth="827" pageHeight="1169" math="0" shadow="0">
      <root>
        <mxCell id="WIyWlLk6GJQsqaUBKTNV-0" />
        <mxCell id="WIyWlLk6GJQsqaUBKTNV-1" parent="WIyWlLk6GJQsqaUBKTNV-0" />
        <mxCell id="-Vuvgn-jPjydnoeIbexu-8" style="edgeStyle=orthogonalEdgeStyle;rounded=0;orthogonalLoop=1;jettySize=auto;html=1;exitX=0.5;exitY=1;exitDx=0;exitDy=0;exitPerimeter=0;entryX=0.5;entryY=0;entryDx=0;entryDy=0;" edge="1" parent="WIyWlLk6GJQsqaUBKTNV-1" source="-Vuvgn-jPjydnoeIbexu-1" target="-Vuvgn-jPjydnoeIbexu-2">
          <mxGeometry relative="1" as="geometry" />
        </mxCell>
        <mxCell id="-Vuvgn-jPjydnoeIbexu-1" value="START" style="strokeWidth=2;html=1;shape=mxgraph.flowchart.start_1;whiteSpace=wrap;" vertex="1" parent="WIyWlLk6GJQsqaUBKTNV-1">
          <mxGeometry x="455" y="150" width="100" height="60" as="geometry" />
        </mxCell>
        <mxCell id="-Vuvgn-jPjydnoeIbexu-9" style="edgeStyle=orthogonalEdgeStyle;rounded=0;orthogonalLoop=1;jettySize=auto;html=1;exitX=0.5;exitY=1;exitDx=0;exitDy=0;entryX=0.5;entryY=0;entryDx=0;entryDy=0;" edge="1" parent="WIyWlLk6GJQsqaUBKTNV-1" source="-Vuvgn-jPjydnoeIbexu-2" target="-Vuvgn-jPjydnoeIbexu-3">
          <mxGeometry relative="1" as="geometry" />
        </mxCell>
        <mxCell id="-Vuvgn-jPjydnoeIbexu-2" value="READ N" style="shape=parallelogram;html=1;strokeWidth=2;perimeter=parallelogramPerimeter;whiteSpace=wrap;rounded=1;arcSize=12;size=0.23;" vertex="1" parent="WIyWlLk6GJQsqaUBKTNV-1">
          <mxGeometry x="394" y="230" width="220" height="60" as="geometry" />
        </mxCell>
        <mxCell id="-Vuvgn-jPjydnoeIbexu-10" style="edgeStyle=orthogonalEdgeStyle;rounded=0;orthogonalLoop=1;jettySize=auto;html=1;exitX=0.5;exitY=1;exitDx=0;exitDy=0;entryX=0.5;entryY=0;entryDx=0;entryDy=0;" edge="1" parent="WIyWlLk6GJQsqaUBKTNV-1" source="-Vuvgn-jPjydnoeIbexu-3" target="-Vuvgn-jPjydnoeIbexu-4">
          <mxGeometry relative="1" as="geometry" />
        </mxCell>
        <mxCell id="-Vuvgn-jPjydnoeIbexu-3" value="COUNTER = 0&lt;div&gt;SUM = 0&lt;/div&gt;" style="rounded=1;whiteSpace=wrap;html=1;absoluteArcSize=1;arcSize=14;strokeWidth=2;" vertex="1" parent="WIyWlLk6GJQsqaUBKTNV-1">
          <mxGeometry x="414" y="310" width="180" height="50" as="geometry" />
        </mxCell>
        <mxCell id="-Vuvgn-jPjydnoeIbexu-11" style="edgeStyle=orthogonalEdgeStyle;rounded=0;orthogonalLoop=1;jettySize=auto;html=1;exitX=0.5;exitY=1;exitDx=0;exitDy=0;entryX=0.5;entryY=0;entryDx=0;entryDy=0;" edge="1" parent="WIyWlLk6GJQsqaUBKTNV-1" source="-Vuvgn-jPjydnoeIbexu-4" target="-Vuvgn-jPjydnoeIbexu-5">
          <mxGeometry relative="1" as="geometry" />
        </mxCell>
        <mxCell id="-Vuvgn-jPjydnoeIbexu-4" value="COUNTER = COUNTER + 1" style="rounded=1;whiteSpace=wrap;html=1;absoluteArcSize=1;arcSize=14;strokeWidth=2;" vertex="1" parent="WIyWlLk6GJQsqaUBKTNV-1">
          <mxGeometry x="412" y="380" width="186" height="60" as="geometry" />
        </mxCell>
        <mxCell id="-Vuvgn-jPjydnoeIbexu-5" value="RES = COUNTER % 2" style="rounded=1;whiteSpace=wrap;html=1;absoluteArcSize=1;arcSize=14;strokeWidth=2;" vertex="1" parent="WIyWlLk6GJQsqaUBKTNV-1">
          <mxGeometry x="402.5" y="460" width="203" height="60" as="geometry" />
        </mxCell>
        <mxCell id="-Vuvgn-jPjydnoeIbexu-27" style="edgeStyle=orthogonalEdgeStyle;rounded=0;orthogonalLoop=1;jettySize=auto;html=1;exitX=0.5;exitY=1;exitDx=0;exitDy=0;exitPerimeter=0;entryX=0.5;entryY=0;entryDx=0;entryDy=0;" edge="1" parent="WIyWlLk6GJQsqaUBKTNV-1" source="-Vuvgn-jPjydnoeIbexu-6" target="-Vuvgn-jPjydnoeIbexu-7">
          <mxGeometry relative="1" as="geometry" />
        </mxCell>
        <mxCell id="-Vuvgn-jPjydnoeIbexu-28" value="YES" style="edgeLabel;html=1;align=center;verticalAlign=middle;resizable=0;points=[];" vertex="1" connectable="0" parent="-Vuvgn-jPjydnoeIbexu-27">
          <mxGeometry x="-0.2762" y="1" relative="1" as="geometry">
            <mxPoint as="offset" />
          </mxGeometry>
        </mxCell>
        <mxCell id="-Vuvgn-jPjydnoeIbexu-6" value="RES = 1" style="strokeWidth=2;html=1;shape=mxgraph.flowchart.decision;whiteSpace=wrap;" vertex="1" parent="WIyWlLk6GJQsqaUBKTNV-1">
          <mxGeometry x="430" y="545" width="150" height="130" as="geometry" />
        </mxCell>
        <mxCell id="-Vuvgn-jPjydnoeIbexu-7" value="SUM = SUM + COUNTER" style="rounded=1;whiteSpace=wrap;html=1;absoluteArcSize=1;arcSize=14;strokeWidth=2;" vertex="1" parent="WIyWlLk6GJQsqaUBKTNV-1">
          <mxGeometry x="410" y="750" width="190" height="60" as="geometry" />
        </mxCell>
        <mxCell id="-Vuvgn-jPjydnoeIbexu-22" style="edgeStyle=orthogonalEdgeStyle;rounded=0;orthogonalLoop=1;jettySize=auto;html=1;exitX=0.5;exitY=0;exitDx=0;exitDy=0;exitPerimeter=0;entryX=0;entryY=0.5;entryDx=0;entryDy=0;" edge="1" parent="WIyWlLk6GJQsqaUBKTNV-1" source="-Vuvgn-jPjydnoeIbexu-19" target="-Vuvgn-jPjydnoeIbexu-4">
          <mxGeometry relative="1" as="geometry" />
        </mxCell>
        <mxCell id="-Vuvgn-jPjydnoeIbexu-34" value="NO" style="edgeLabel;html=1;align=center;verticalAlign=middle;resizable=0;points=[];" vertex="1" connectable="0" parent="-Vuvgn-jPjydnoeIbexu-22">
          <mxGeometry x="-0.6562" relative="1" as="geometry">
            <mxPoint as="offset" />
          </mxGeometry>
        </mxCell>
        <mxCell id="-Vuvgn-jPjydnoeIbexu-24" style="edgeStyle=orthogonalEdgeStyle;rounded=0;orthogonalLoop=1;jettySize=auto;html=1;exitX=0.5;exitY=1;exitDx=0;exitDy=0;exitPerimeter=0;entryX=0.5;entryY=0;entryDx=0;entryDy=0;" edge="1" parent="WIyWlLk6GJQsqaUBKTNV-1" source="-Vuvgn-jPjydnoeIbexu-19" target="-Vuvgn-jPjydnoeIbexu-23">
          <mxGeometry relative="1" as="geometry" />
        </mxCell>
        <mxCell id="-Vuvgn-jPjydnoeIbexu-35" value="YES" style="edgeLabel;html=1;align=center;verticalAlign=middle;resizable=0;points=[];" vertex="1" connectable="0" parent="-Vuvgn-jPjydnoeIbexu-24">
          <mxGeometry x="-0.11" relative="1" as="geometry">
            <mxPoint as="offset" />
          </mxGeometry>
        </mxCell>
        <mxCell id="-Vuvgn-jPjydnoeIbexu-19" value="COUNTER = N" style="strokeWidth=2;html=1;shape=mxgraph.flowchart.decision;whiteSpace=wrap;" vertex="1" parent="WIyWlLk6GJQsqaUBKTNV-1">
          <mxGeometry x="90" y="550" width="130" height="120" as="geometry" />
        </mxCell>
        <mxCell id="-Vuvgn-jPjydnoeIbexu-33" style="edgeStyle=orthogonalEdgeStyle;rounded=0;orthogonalLoop=1;jettySize=auto;html=1;exitX=0.5;exitY=1;exitDx=0;exitDy=0;" edge="1" parent="WIyWlLk6GJQsqaUBKTNV-1" source="-Vuvgn-jPjydnoeIbexu-23" target="-Vuvgn-jPjydnoeIbexu-32">
          <mxGeometry relative="1" as="geometry" />
        </mxCell>
        <mxCell id="-Vuvgn-jPjydnoeIbexu-23" value="PRINT SUM" style="shape=parallelogram;html=1;strokeWidth=2;perimeter=parallelogramPerimeter;whiteSpace=wrap;rounded=1;arcSize=12;size=0.23;" vertex="1" parent="WIyWlLk6GJQsqaUBKTNV-1">
          <mxGeometry x="60" y="760" width="190" height="60" as="geometry" />
        </mxCell>
        <mxCell id="-Vuvgn-jPjydnoeIbexu-25" style="edgeStyle=orthogonalEdgeStyle;rounded=0;orthogonalLoop=1;jettySize=auto;html=1;exitX=0.5;exitY=1;exitDx=0;exitDy=0;entryX=0.5;entryY=0;entryDx=0;entryDy=0;entryPerimeter=0;" edge="1" parent="WIyWlLk6GJQsqaUBKTNV-1" source="-Vuvgn-jPjydnoeIbexu-5" target="-Vuvgn-jPjydnoeIbexu-6">
          <mxGeometry relative="1" as="geometry" />
        </mxCell>
        <mxCell id="-Vuvgn-jPjydnoeIbexu-29" style="edgeStyle=orthogonalEdgeStyle;rounded=0;orthogonalLoop=1;jettySize=auto;html=1;exitX=0;exitY=0.5;exitDx=0;exitDy=0;entryX=1;entryY=0.5;entryDx=0;entryDy=0;entryPerimeter=0;" edge="1" parent="WIyWlLk6GJQsqaUBKTNV-1" source="-Vuvgn-jPjydnoeIbexu-7" target="-Vuvgn-jPjydnoeIbexu-19">
          <mxGeometry relative="1" as="geometry" />
        </mxCell>
        <mxCell id="-Vuvgn-jPjydnoeIbexu-30" style="edgeStyle=orthogonalEdgeStyle;rounded=0;orthogonalLoop=1;jettySize=auto;html=1;exitX=0;exitY=0.5;exitDx=0;exitDy=0;exitPerimeter=0;entryX=1;entryY=0.5;entryDx=0;entryDy=0;entryPerimeter=0;" edge="1" parent="WIyWlLk6GJQsqaUBKTNV-1" source="-Vuvgn-jPjydnoeIbexu-6" target="-Vuvgn-jPjydnoeIbexu-19">
          <mxGeometry relative="1" as="geometry" />
        </mxCell>
        <mxCell id="-Vuvgn-jPjydnoeIbexu-31" value="NO" style="edgeLabel;html=1;align=center;verticalAlign=middle;resizable=0;points=[];" vertex="1" connectable="0" parent="-Vuvgn-jPjydnoeIbexu-30">
          <mxGeometry x="-0.4286" relative="1" as="geometry">
            <mxPoint as="offset" />
          </mxGeometry>
        </mxCell>
        <mxCell id="-Vuvgn-jPjydnoeIbexu-32" value="END" style="strokeWidth=2;html=1;shape=mxgraph.flowchart.terminator;whiteSpace=wrap;" vertex="1" parent="WIyWlLk6GJQsqaUBKTNV-1">
          <mxGeometry x="105" y="870" width="100" height="60" as="geometry" />
        </mxCell>
      </root>
    </mxGraphModel>
  </diagram>
</mxfile>
